<svg xmlns="http://www.w3.org/2000/svg" xmlns:xlink="http://www.w3.org/1999/xlink" viewBox="0 0 178 90"><defs><style>.cls-1{fill:#fff;}.cls-1,.cls-2,.cls-4{fill-rule:evenodd;}.cls-2{fill:#002a61;}.cls-3{mask:url(#mask);}.cls-4{fill:#58bd2b;}</style><mask id="mask" x="0" y="0" width="57.71" height="90" maskUnits="userSpaceOnUse"><g id="mask-2" data-name="mask"><g id="b"><path id="a" class="cls-1" d="M0,0H57.66V90H0Z"/></g></g></mask></defs><g id="Layer_2" data-name="Layer 2"><g id="BIOHAVEN"><path class="cls-2" d="M137.73,51.94a6.41,6.41,0,0,1,6.2-4.87c4,.32,6.34,3,6.79,4.87Zm6.2-9.23a11.49,11.49,0,1,0,8.22,19.92,2.09,2.09,0,0,0,0-3h0a2.6,2.6,0,0,0-3.44.14,7.45,7.45,0,0,1-4.78,1.14,7,7,0,0,1-4.41-2.06A6,6,0,0,1,138,55.8h14.61A2.21,2.21,0,0,0,155,54a1.48,1.48,0,0,0,0-.42v-.23A11,11,0,0,0,143.93,42.71Zm-33.2,32a2.39,2.39,0,0,1,1.45.49.83.83,0,0,0,1.16-.16h0a.83.83,0,0,0-.17-1.13,4,4,0,0,0-2.44-.9,3.85,3.85,0,1,0-.37,7.7,2.28,2.28,0,0,0,.37,0,4.2,4.2,0,0,0,2.44-.81.89.89,0,0,0,.17-1.14.84.84,0,0,0-1.16-.17,2.39,2.39,0,0,1-1.45.49,2.21,2.21,0,1,1-.28-4.41,1.31,1.31,0,0,1,.28,0ZM169,70a.85.85,0,0,0-.85.85h0v9.09a.86.86,0,0,0,.86.85.86.86,0,0,0,.85-.85h0V70.84A.9.9,0,0,0,169,70Zm-7,8.53a2,2,0,0,1-1.43.61,1.9,1.9,0,0,1-1.43-.61,2.46,2.46,0,0,1,0-3.17,1.87,1.87,0,0,1,1.43-.63,1.92,1.92,0,0,1,1.43.63,2.26,2.26,0,0,1,.6,1.58,2.32,2.32,0,0,1-.58,1.59Zm1.42-5.45a.83.83,0,0,0-.8.68,3.43,3.43,0,0,0-2.05-.68,3.49,3.49,0,0,0-2.61,1.16,3.85,3.85,0,0,0-1.06,2.69,3.92,3.92,0,0,0,1.06,2.7,3.58,3.58,0,0,0,2.61,1.12,3.5,3.5,0,0,0,2.05-.66.82.82,0,0,0,1.62-.15v-6A.83.83,0,0,0,163.39,73.07Zm-61.92,5.45a2,2,0,0,1-1.43.61,2,2,0,0,1-1.44-.61,2.46,2.46,0,0,1,0-3.17,1.89,1.89,0,0,1,1.44-.63,2,2,0,0,1,1.43.63,2.26,2.26,0,0,1,.6,1.58,2.36,2.36,0,0,1-.58,1.59Zm1.41-5.45a.84.84,0,0,0-.8.68,3.42,3.42,0,0,0-2-.68,3.57,3.57,0,0,0-2.63,1.16,3.88,3.88,0,0,0-1,2.69,4,4,0,0,0,1,2.7A3.6,3.6,0,0,0,100,80.74a3.47,3.47,0,0,0,2-.66.9.9,0,0,0,.8.66.82.82,0,0,0,.82-.81h0v-6a.83.83,0,0,0-.82-.83ZM101.08,59a5.91,5.91,0,0,1-4.27,1.79A5.82,5.82,0,0,1,92.54,59a6.89,6.89,0,0,1-1.74-4.74,6.71,6.71,0,0,1,1.8-4.72,5.55,5.55,0,0,1,4.27-1.88,5.7,5.7,0,0,1,4.27,1.88,6.72,6.72,0,0,1,1.79,4.73A6.94,6.94,0,0,1,101.14,59Zm6.66,4.27V45.19a2.46,2.46,0,0,0-2.43-2.48,2.49,2.49,0,0,0-2.39,2A10.42,10.42,0,0,0,89,46.15a11.56,11.56,0,0,0-3.12,8.09A11.73,11.73,0,0,0,89,62.33a10.65,10.65,0,0,0,7.86,3.36,10.38,10.38,0,0,0,6.1-2,2.51,2.51,0,0,0,2.39,2,2.46,2.46,0,0,0,2.44-2.44ZM144.15,70a.83.83,0,0,0-.83.83h0v.32a.83.83,0,0,0,.82.85h0a.83.83,0,0,0,.83-.83v-.34a.81.81,0,0,0-.79-.83h0Zm7.47,4.73a2.4,2.4,0,0,1,1.46.49.83.83,0,0,0,1.16-.16h0a.84.84,0,0,0-.17-1.13,4,4,0,0,0-2.45-.9,3.85,3.85,0,1,0-.37,7.7,2.29,2.29,0,0,0,.37,0,4.23,4.23,0,0,0,2.45-.81.9.9,0,0,0,.17-1.14.85.85,0,0,0-1.16-.18,2.35,2.35,0,0,1-1.46.5,2.21,2.21,0,0,1-.28-4.41,1.31,1.31,0,0,1,.28,0Zm-34,1.45a2.17,2.17,0,0,1,2.09-1.64A2.5,2.5,0,0,1,122,76.17Zm2.09-3.1a3.85,3.85,0,1,0,2.75,6.68.7.7,0,0,0,0-1h0a.89.89,0,0,0-1.15,0,2.51,2.51,0,0,1-1.6.37,2.31,2.31,0,0,1-1.48-.69,1.89,1.89,0,0,1-.52-1h4.89a.76.76,0,0,0,.81-.61V76.6a3.69,3.69,0,0,0-3.71-3.6Zm12.24,0a.8.8,0,0,0-.8.82h0v3.68a1.59,1.59,0,0,1-1.62,1.56h0A1.55,1.55,0,0,1,128,77.59v-3.7a.82.82,0,1,0-1.63,0v3.68a3.22,3.22,0,0,0,3.2,3.2,3.25,3.25,0,0,0,3.25-3.2V73.89a.89.89,0,0,0-.78-.82Zm7.19,0h-.38V70.84a.85.85,0,0,0-.83-.85h0a.85.85,0,0,0-.89.79.13.13,0,0,0,0,.06v2.23h-.37a.84.84,0,0,0-.86.82h0a.85.85,0,0,0,.85.85h.44V79a1.7,1.7,0,0,0,1.71,1.7.82.82,0,0,0,.89-.77s0,0,0-.07a.84.84,0,0,0-.78-.9h-.06V74.77h.38a.88.88,0,1,0,0-1.75Zm5,0a.82.82,0,0,0-.83.82h0v6a.82.82,0,0,0,.81.83h0a.82.82,0,0,0,.83-.81h0v-6a.81.81,0,0,0-.77-.84h0Zm24.2-30.38a9.2,9.2,0,0,0-4.82,1.43,2.47,2.47,0,0,0-2.24-1.42,2.42,2.42,0,0,0-2.44,2.4h0V63.24a2.43,2.43,0,0,0,2.4,2.45h0a2.52,2.52,0,0,0,2.44-2,.9.9,0,0,0,.09-.46v-11a4.59,4.59,0,0,1,4.53-4.64h.06a4.71,4.71,0,0,1,4.77,4.64v11a2.48,2.48,0,0,0,2.47,2.45A2.42,2.42,0,0,0,178,63.25h0v-11a9.6,9.6,0,0,0-9.59-9.55ZM48.17,78.48a2,2,0,0,1-1.42.69,1.9,1.9,0,0,1-1.46-.65,2,2,0,0,1-.6-1.54,2.16,2.16,0,0,1,.6-1.56,2,2,0,0,1,1.46-.63,2,2,0,0,1,1.44.63A2.37,2.37,0,0,1,48.8,77,2.28,2.28,0,0,1,48.17,78.48Zm-1.45-5.39a3.8,3.8,0,0,0-2.09.63.89.89,0,0,0-.85-.63.81.81,0,0,0-.81.81v9a.84.84,0,0,0,.81.83.9.9,0,0,0,.9-.83v-2.7a3.56,3.56,0,0,0,2.07.63A3.77,3.77,0,0,0,50.47,77a3.83,3.83,0,0,0-3.72-3.93h0Zm71.87-8.87a.55.55,0,0,0,.18.32h0a1.24,1.24,0,0,1,.23.32h.09a1.85,1.85,0,0,0,.28.28h0c.19.09.28.18.41.23h.09a.92.92,0,0,1,.37.09h.09a1.41,1.41,0,0,0,.41,0,1.77,1.77,0,0,0,.46,0h.16a.77.77,0,0,1,.36-.09h.1a.9.9,0,0,0,.32-.23h0a1.79,1.79,0,0,0,.27-.28m.05,0c.08-.09.18-.23.27-.32h0a1.14,1.14,0,0,0,.18-.32L130.5,46.4a2.38,2.38,0,0,0-4.31-2,2.29,2.29,0,0,0-.1.23l-5.33,12.5-5.28-12.5a2.38,2.38,0,0,0-4.41,1.8h0l7.44,17.82ZM29.59,40l-8.44-4.91V25.42l8.44-4.87L38,25.42v9.71Zm0-21.07-9.81,5.65V36l9.81,5.66L39.4,36V24.62ZM68.7,78.52a2,2,0,0,1-1.43.61,2,2,0,0,1-1.44-.61,2.3,2.3,0,0,1-.58-1.59,2.24,2.24,0,0,1,.58-1.58,1.89,1.89,0,0,1,1.44-.63,1.92,1.92,0,0,1,1.43.63,2.26,2.26,0,0,1,.6,1.58A2.32,2.32,0,0,1,68.7,78.52Zm1.42-5.45a.84.84,0,0,0-.8.68,3.4,3.4,0,0,0-2-.68,3.53,3.53,0,0,0-2.62,1.16,3.89,3.89,0,0,0-1,2.69,4,4,0,0,0,1,2.7,3.56,3.56,0,0,0,2.62,1.12,3.45,3.45,0,0,0,2-.67.9.9,0,0,0,.8.66.82.82,0,0,0,.82-.81h0v-6a.82.82,0,0,0-.82-.83h0Zm1.74-30.36A10.44,10.44,0,0,0,66.94,44V36a2.55,2.55,0,0,0-5.1,0V63.15a3.3,3.3,0,0,0,.09.63,2.6,2.6,0,0,0,2.43,1.91,2.54,2.54,0,0,0,2.57-2.48V52.77a4.95,4.95,0,1,1,9.89,0V63.15a2.53,2.53,0,0,0,5.05,0V52.77a10,10,0,0,0-10-10.06ZM78.5,73.09a3.3,3.3,0,0,0-1.94.6,1.83,1.83,0,0,0-.32.3v-.1a.83.83,0,0,0-.85-.81h0a.78.78,0,0,0-.8.79h0V80a.82.82,0,0,0,.8.82.84.84,0,0,0,.9-.79V77a4.42,4.42,0,0,1,.63-1.29,2.19,2.19,0,0,1,.71-.74,1.48,1.48,0,0,1,.9-.3.82.82,0,0,0,.82-.81h0A.8.8,0,0,0,78.5,73.09Zm98.09,3.38a6.09,6.09,0,0,0-1.43-.45h0a3.07,3.07,0,0,1-1.12-.36.44.44,0,0,1-.17-.16.24.24,0,0,1,0-.12.46.46,0,0,1,.25-.35,1.55,1.55,0,0,1,.9-.28,2.61,2.61,0,0,1,1.42.56.81.81,0,0,0,1.13-.19h0a.91.91,0,0,0-.25-1.13,4,4,0,0,0-2.32-.9,3.23,3.23,0,0,0-1.88.57,2.12,2.12,0,0,0-.9,1.69,1.75,1.75,0,0,0,.26,1,2.58,2.58,0,0,0,1.06.9,5.76,5.76,0,0,0,1.34.41h0a3.41,3.41,0,0,1,1.23.43c.12.08.18.13.2.19a.19.19,0,0,1,0,.15.65.65,0,0,1-.28.46,2,2,0,0,1-1,.29,2.79,2.79,0,0,1-1.7-.68.81.81,0,0,0-1.13.09h0a.82.82,0,0,0,.11,1.14,4.49,4.49,0,0,0,2.7,1.06,3.45,3.45,0,0,0,2-.62,2.2,2.2,0,0,0,1-1.8,2.14,2.14,0,0,0-.29-1,2.36,2.36,0,0,0-1.1-.9ZM90,73.09a3.22,3.22,0,0,0-2.42,1,3.19,3.19,0,0,0-4.06-.6.77.77,0,0,0-.74-.47.82.82,0,0,0-.82.82h0V80a.84.84,0,0,0,.67.8h.15a.87.87,0,0,0,.76-.49v-.07a.47.47,0,0,0,.09-.12h0V76.3a1.57,1.57,0,1,1,3.14,0V80a.84.84,0,0,0,.83.81A.82.82,0,0,0,88.4,80h0V76.26a1.58,1.58,0,0,1,3.15,0v3.65a.83.83,0,0,0,.84.81.81.81,0,0,0,.81-.81V76.3A3.22,3.22,0,0,0,90,73.07h0Zm-32.88,0a3.63,3.63,0,0,0-1.64.45V70.85A.92.92,0,0,0,54.6,70h0a.84.84,0,0,0-.84.83h0v9.09a.74.74,0,0,0,0,.21.9.9,0,0,0,.82.63.83.83,0,0,0,.89-.79.11.11,0,0,0,0,0V76.47a1.65,1.65,0,1,1,3.3,0h0V80a.86.86,0,0,0,.85.85.85.85,0,0,0,.84-.85V76.47a3.37,3.37,0,0,0-3.35-3.38Z"/><g class="cls-3"><path class="cls-4" d="M15.6,58.88a6,6,0,0,1-4.35,1.89A5.87,5.87,0,0,1,6.9,58.88a6.68,6.68,0,0,1,0-9.25,5.88,5.88,0,0,1,4.35-1.92,6,6,0,0,1,4.35,1.9,6.7,6.7,0,0,1,0,9.25ZM11.25,42.7A11,11,0,0,0,5,44.65V35.93a2.52,2.52,0,0,0-5,0V63.32a2.51,2.51,0,0,0,2.5,2.49,2.48,2.48,0,0,0,2.45-2,11.35,11.35,0,0,0,6.3,2,11.57,11.57,0,0,0,0-23.13ZM29.67,65.81a2.46,2.46,0,0,0,2.5-2.42V45.28a2.5,2.5,0,0,0-5,0h0v18a2.46,2.46,0,0,0,2.44,2.49h.06ZM51,59.2a6.1,6.1,0,0,1-4.26,1.72,6.32,6.32,0,0,1-4.49-1.72,7.9,7.9,0,0,1,0-9.69,6.78,6.78,0,0,1,4.44-1.8A6.63,6.63,0,0,1,51,49.51a7,7,0,0,1,1.8,4.82A7.06,7.06,0,0,1,51,59.2Zm3.47-13a10.28,10.28,0,0,0-7.73-3.52,10.84,10.84,0,0,0-8,3.52,12,12,0,0,0-3.19,8.09,11.54,11.54,0,0,0,3.19,8.15,10.8,10.8,0,0,0,8,3.51,10.27,10.27,0,0,0,7.73-3.51,11.28,11.28,0,0,0,3.24-8.15,11.6,11.6,0,0,0-3.29-8.09ZM40.5,1.6,49,6.51v9.81L40.5,21.23,32,16.32V6.51Zm0,21.23,9.89-5.71V5.71L40.5,0,30.61,5.71V17.16ZM29.56,88.36l-8.5-4.91V73.63l8.5-4.9,8.5,4.9v9.82Zm0-21.23-9.89,5.75V84.29L29.56,90l9.89-5.71V72.88l-9.89-5.71Z"/></g></g></g></svg>