<svg xmlns="http://www.w3.org/2000/svg" viewBox="0 0 138.46 70"><defs><style>.cls-1{fill:#fff;fill-rule:evenodd;}</style></defs><g id="Layer_2" data-name="Layer 2"><g id="Isolation_Mode" data-name="Isolation Mode"><path class="cls-1" d="M107.13,40.42A4.94,4.94,0,0,1,112,36.64a6,6,0,0,1,5.31,3.78Zm4.83-7.2a8.92,8.92,0,0,0,0,17.83,8.79,8.79,0,0,0,6.36-2.38,1.65,1.65,0,0,0,0-2.31h0a2,2,0,0,0-2.66.14,5.84,5.84,0,0,1-3.7.91,5.63,5.63,0,0,1-3.43-1.61,4.27,4.27,0,0,1-1.19-2.37h11.33a1.64,1.64,0,0,0,1.82-1.4v-.56A8.46,8.46,0,0,0,112,33.22ZM86.15,58.11a1.94,1.94,0,0,1,1.12.35.66.66,0,0,0,.91-.14h0a.66.66,0,0,0-.14-.91,3.14,3.14,0,0,0-1.89-.7,3,3,0,0,0-.28,6h.28A3.07,3.07,0,0,0,88,62.1a.74.74,0,0,0,.14-.91.66.66,0,0,0-.91-.14,2.12,2.12,0,0,1-1.12.35A1.72,1.72,0,0,1,85.94,58c.07.14.14.14.21.14Zm45.32-3.63a.63.63,0,0,0-.63.62h0v7.07a.65.65,0,0,0,.7.63.63.63,0,0,0,.63-.63h0V55.1a.74.74,0,0,0-.7-.62ZM126,61.12a1.65,1.65,0,0,1-1.11.49,1.39,1.39,0,0,1-1.12-.49,1.63,1.63,0,0,1-.42-1.26,2.1,2.1,0,0,1,.42-1.26,1.39,1.39,0,0,1,1.12-.49,1.65,1.65,0,0,1,1.11.49,1.87,1.87,0,0,1,0,2.52Zm1.12-4.27a.66.66,0,0,0-.63.56,2.8,2.8,0,0,0-1.6-.56,2.75,2.75,0,0,0-2,.91,3,3,0,0,0,0,4.2,2.55,2.55,0,0,0,2,.84,3.32,3.32,0,0,0,1.6-.49.67.67,0,0,0,.63.49.63.63,0,0,0,.63-.63V57.48A.63.63,0,0,0,127.13,56.85ZM79,61.12a1.65,1.65,0,0,1-1.12.49,1.39,1.39,0,0,1-1.12-.49,2,2,0,0,1-.49-1.26,1.8,1.8,0,0,1,.49-1.26,1.39,1.39,0,0,1,1.12-.49A1.65,1.65,0,0,1,79,58.6a1.87,1.87,0,0,1,0,2.52Zm1-4.27a.66.66,0,0,0-.63.56,2.8,2.8,0,0,0-1.61-.56,2.75,2.75,0,0,0-2,.91,3.07,3.07,0,0,0,0,4.2,2.55,2.55,0,0,0,2,.84,3.33,3.33,0,0,0,1.61-.49.67.67,0,0,0,.63.49.63.63,0,0,0,.63-.63h0V57.48c.07-.35-.28-.63-.63-.63Zm-1.4-11a4.6,4.6,0,0,1-3.36,1.4,4.71,4.71,0,0,1-3.35-1.4,5,5,0,0,1-1.33-3.7A5.38,5.38,0,0,1,72,38.53a4.3,4.3,0,0,1,3.35-1.47,4.51,4.51,0,0,1,3.36,1.47,5.43,5.43,0,0,1,1.4,3.71,5.1,5.1,0,0,1-1.47,3.63Zm5.25,3.36V35.17a2,2,0,0,0-1.89-2,2,2,0,0,0-1.89,1.54,8.17,8.17,0,0,0-10.84,1.11,9.31,9.31,0,0,0,0,12.59,8.09,8.09,0,0,0,6.08,2.59,8.38,8.38,0,0,0,4.76-1.54A1.94,1.94,0,0,0,82,51.05a1.78,1.78,0,0,0,1.89-1.82Zm28.32,5.25a.63.63,0,0,0-.63.62h0v.28a.63.63,0,0,0,.63.63h0a.63.63,0,0,0,.63-.63h0V55.1a.63.63,0,0,0-.63-.62Zm5.8,3.63a1.94,1.94,0,0,1,1.12.35.66.66,0,0,0,.91-.14h0a.66.66,0,0,0-.14-.91,3.14,3.14,0,0,0-1.89-.7,3,3,0,0,0-.28,6H118a3.07,3.07,0,0,0,1.89-.63.74.74,0,0,0,.14-.91.66.66,0,0,0-.91-.14,1.72,1.72,0,0,1-1.12.42,1.72,1.72,0,0,1-.21-3.43.26.26,0,0,0,.21.07Zm-26.5,1.12A1.64,1.64,0,0,1,93.08,58a2,2,0,0,1,1.75,1.26Zm1.68-2.38A3,3,0,0,0,90.28,60a3,3,0,0,0,2.87,2.87,3.52,3.52,0,0,0,2.16-.77.55.55,0,0,0,0-.77h0a.72.72,0,0,0-.9,0,2,2,0,0,1-1.26.28A1.73,1.73,0,0,1,92,61.05a1.67,1.67,0,0,1-.42-.77h3.77a.67.67,0,0,0,.63-.49v-.21a2.8,2.8,0,0,0-2.86-2.73Zm9.51,0a.63.63,0,0,0-.63.63h0v2.87a1.16,1.16,0,0,1-1.26,1.19h0a1.18,1.18,0,0,1-1.19-1.19h0V57.48a.63.63,0,1,0-1.26,0v2.87a2.55,2.55,0,0,0,2.52,2.52,2.51,2.51,0,0,0,2.52-2.52V57.48a.82.82,0,0,0-.7-.63Zm5.59,0H108V55.1a.63.63,0,0,0-.63-.62h0a.69.69,0,0,0-.7.62v1.82h-.35a.63.63,0,0,0-.63.63h0a.63.63,0,0,0,.63.63h.35v3.36A1.38,1.38,0,0,0,108,62.87a.64.64,0,0,0,.7-.63v-.07a.69.69,0,0,0-.63-.7H108V58.18h.28a.69.69,0,0,0,.7-.63.6.6,0,0,0-.7-.7Zm3.92,0a.63.63,0,0,0-.63.63h0v4.69a.63.63,0,0,0,.63.63h0a.63.63,0,0,0,.63-.63h0V57.48a.68.68,0,0,0-.63-.63ZM131,33.22a7.23,7.23,0,0,0-3.78,1.12,1.92,1.92,0,0,0-1.75-1.12,1.88,1.88,0,0,0-1.88,1.88h0V49.23a1.88,1.88,0,0,0,1.88,1.89h0a1.94,1.94,0,0,0,1.89-1.54.63.63,0,0,0,.07-.35V40.7a3.63,3.63,0,0,1,3.5-3.64H131a3.67,3.67,0,0,1,3.71,3.64v8.53a1.89,1.89,0,1,0,3.77,0h0V40.7A7.49,7.49,0,0,0,131,33.22ZM37.48,61.05a1.73,1.73,0,0,1-1.12.56,1.65,1.65,0,0,1-1.12-.49,1.67,1.67,0,0,1-.48-1.19,1.56,1.56,0,0,1,.48-1.19,1.39,1.39,0,0,1,1.12-.49,1.65,1.65,0,0,1,1.12.49A2,2,0,0,1,38,59.93,1.65,1.65,0,0,1,37.48,61.05Zm-1.12-4.2a3.26,3.26,0,0,0-1.6.49.7.7,0,0,0-.7-.49.63.63,0,0,0-.63.63v7a.62.62,0,0,0,.63.62.68.68,0,0,0,.7-.62v-2.1a2.67,2.67,0,0,0,1.6.49,2.85,2.85,0,0,0,2.87-2.94,2.93,2.93,0,0,0-2.87-3.08Zm55.88-6.92c.07.14.07.21.14.28h0a1,1,0,0,1,.21.28h.07l.21.21h0c.14.07.21.14.35.14h.07a.42.42,0,0,1,.28.07h.91a.42.42,0,0,1,.28-.07h.07c.07-.07.2-.07.27-.14h.07l.21-.21m-.07,0c.07-.07.14-.21.21-.28h0a.36.36,0,0,0,.14-.28l5.88-13.85a1.85,1.85,0,0,0-3.36-1.53c0,.07-.07.14-.07.21L94,44.48l-4.13-9.72a1.91,1.91,0,0,0-2.45-1,1.87,1.87,0,0,0-1,2.44h0L92.17,50ZM23,31.12l-6.58-3.85V19.79L23,16l6.57,3.78v7.55Zm0-16.36-7.63,4.4V28L23,32.38,30.63,28V19.16ZM53.43,61.12a1.65,1.65,0,0,1-1.12.49,1.39,1.39,0,0,1-1.12-.49,2,2,0,0,1-.49-1.26,1.8,1.8,0,0,1,.49-1.26,1.39,1.39,0,0,1,1.12-.49,1.65,1.65,0,0,1,1.12.49,2,2,0,0,1,.49,1.26A1.69,1.69,0,0,1,53.43,61.12Zm1.12-4.27a.66.66,0,0,0-.63.56,2.8,2.8,0,0,0-1.61-.56,2.75,2.75,0,0,0-2,.91,3,3,0,0,0,0,4.2,2.55,2.55,0,0,0,2,.84,2.8,2.8,0,0,0,1.61-.56.67.67,0,0,0,.63.49.62.62,0,0,0,.62-.63h0V57.41a.61.61,0,0,0-.62-.56Zm1.32-23.63A7.58,7.58,0,0,0,52,34.27V28a2,2,0,0,0-2.1-1.89A2,2,0,0,0,48,28V49.16a1.19,1.19,0,0,0,.07.49A2,2,0,0,0,50,51.12a2,2,0,0,0,2-2h0V41.05a3.85,3.85,0,1,1,7.69,0v8a2,2,0,1,0,3.92,0v-8a7.72,7.72,0,0,0-7.77-7.83Zm5.18,23.63a2.52,2.52,0,0,0-1.54.49l-.21.21v-.07a.63.63,0,0,0-.63-.63H58.6a.63.63,0,0,0-.63.63h0v4.76a.63.63,0,0,0,.63.63.69.69,0,0,0,.7-.63h0V60a4.28,4.28,0,0,1,.49-1,2.13,2.13,0,0,1,.56-.56,1.18,1.18,0,0,1,.7-.21.63.63,0,0,0,.63-.63h0C61.68,57.13,61.4,56.85,61.05,56.85Zm76.29,2.66a5.25,5.25,0,0,0-1.12-.35h0a3,3,0,0,1-.84-.28c-.07,0-.07-.07-.14-.14v-.07c0-.14.07-.21.21-.28a1.18,1.18,0,0,1,.7-.21,2.2,2.2,0,0,1,1.12.42.66.66,0,0,0,.91-.14h0a.76.76,0,0,0-.21-.91,2.8,2.8,0,0,0-1.82-.7,2.7,2.7,0,0,0-1.46.42,1.59,1.59,0,0,0-.7,1.33,1.41,1.41,0,0,0,.21.77,2.09,2.09,0,0,0,.83.7,2.93,2.93,0,0,0,1.05.28h0a2.76,2.76,0,0,1,1,.35l.14.14V61a.38.38,0,0,1-.21.35,1.66,1.66,0,0,1-.84.21,1.87,1.87,0,0,1-1.32-.56.57.57,0,0,0-.84.07h0a.65.65,0,0,0,.07.91,3.7,3.7,0,0,0,2.09.84,2.39,2.39,0,0,0,1.54-.49,1.61,1.61,0,0,0,.77-1.4,1.41,1.41,0,0,0-.21-.77,2,2,0,0,0-.91-.63ZM70,56.85a2.5,2.5,0,0,0-1.89.84A2.45,2.45,0,0,0,65,57.2a.63.63,0,0,0-1.19.28h0v4.76a.67.67,0,0,0,.49.63h.14a.53.53,0,0,0,.56-.42v-.07l.06-.07h0V59.37a1.26,1.26,0,1,1,2.52,0v2.87a.63.63,0,0,0,1.26,0h0V59.3a1.23,1.23,0,0,1,2.45,0v2.87a.63.63,0,0,0,1.26,0v-2.8A2.51,2.51,0,0,0,70,56.85Zm-25.59,0a2.62,2.62,0,0,0-1.26.35V55.1a.64.64,0,0,0-.7-.62h0a.63.63,0,0,0-.63.62h0v7.21a.67.67,0,0,0,.63.49.69.69,0,0,0,.7-.63V59.44a1.26,1.26,0,1,1,2.51,0h0v2.8a.63.63,0,0,0,1.26,0V59.51a2.46,2.46,0,0,0-2.51-2.66Z"/><path class="cls-1" d="M12.17,45.8a4.79,4.79,0,0,1-3.36,1.47A4.66,4.66,0,0,1,5.45,45.8a5.3,5.3,0,0,1,0-7.2,4.41,4.41,0,0,1,3.36-1.47,4.66,4.66,0,0,1,3.36,1.47,5.28,5.28,0,0,1,0,7.2ZM8.74,33.22a8.38,8.38,0,0,0-4.82,1.54V28a2,2,0,0,0-2.1-1.82A1.9,1.9,0,0,0,0,28V49.3a2,2,0,0,0,2,2,1.89,1.89,0,0,0,1.89-1.54,8.77,8.77,0,0,0,4.89,1.54,9,9,0,0,0,0-18Zm14.34,18a1.93,1.93,0,0,0,2-1.89V35.24a2,2,0,0,0-3.91,0h0V49.3a1.9,1.9,0,0,0,2,1.89Zm16.57-5.11a5,5,0,0,1-6.78,0,5.71,5.71,0,0,1-1.26-3.77,6,6,0,0,1,1.26-3.71,5.17,5.17,0,0,1,3.42-1.4,5,5,0,0,1,3.29,1.4A5.74,5.74,0,0,1,41,42.38a5.37,5.37,0,0,1-1.33,3.7Zm2.73-10.14a8,8,0,0,0-6-2.72,8.18,8.18,0,0,0-6.15,2.72,9.13,9.13,0,0,0-2.45,6.3,9,9,0,0,0,2.45,6.36,8.38,8.38,0,0,0,6.15,2.73,8,8,0,0,0,6-2.73,8.63,8.63,0,0,0,2.52-6.36,9.07,9.07,0,0,0-2.52-6.3ZM31.47,1.26,38.11,5.1v7.63L31.47,16.5l-6.64-3.84V5Zm0,16.5,7.69-4.47V4.48L31.47,0,23.78,4.41v8.88ZM23,68.74,16.36,64.9V57.27L23,53.43l6.64,3.84V64.9Zm0-16.5-7.7,4.47v8.88L23,70l7.69-4.41V56.71L23,52.24Z"/></g></g></svg>